<svg xmlns="http://www.w3.org/2000/svg" viewBox="0 0 47.45 50.9"><defs><style>.cls-1{fill:none;stroke:#05e5ce;stroke-miterlimit:10;}.cls-2{fill:#e5e5e5;}</style></defs><title>ae</title><g id="INFORMACIÓN"><polygon class="cls-1" points="5.59 9.14 5.88 22.61 3.78 24.31 4.16 38.67 22.91 48.17 41.75 38.42 41.76 24.9 43.48 23.81 43.67 8.59 24.67 2.73 5.59 9.14"/><path class="cls-2" d="M9.46,33.77c.56-1.48,1.1-2.9,1.65-4.33,1.48-3.88,3-7.77,4.44-11.67a.61.61,0,0,1,.7-.47c.65,0,1.32,0,2,0a.57.57,0,0,1,.44.29q3.06,8,6.08,16s0,.09,0,.2c-1,0-2.06,0-3.08,0-.11,0-.25-.21-.31-.35-.42-1.11-.84-2.23-1.24-3.35a.49.49,0,0,0-.56-.38c-1.64,0-3.29,0-4.93,0a.53.53,0,0,0-.58.42c-.39,1.13-.82,2.24-1.22,3.36-.08.21-.15.34-.43.34C11.48,33.76,10.51,33.77,9.46,33.77ZM17.15,21,14.8,27.39h4.61Z"/><path class="cls-2" d="M28.62,28.69a3.18,3.18,0,0,0,2.07,2.87,3.41,3.41,0,0,0,4-1.46l2.62.72a4.78,4.78,0,0,1-1.36,1.74c-2.49,2.17-7.81,2.16-9.89-1.73a6.25,6.25,0,0,1,.37-6.77,6,6,0,0,1,5.82-2.6A6,6,0,0,1,37,24.18a6.51,6.51,0,0,1,.93,4.2c0,.36-.26.31-.48.31H28.62Zm6.13-2a3.08,3.08,0,0,0-3.22-3,3,3,0,0,0-3,3Z"/></g></svg>