<svg xmlns="http://www.w3.org/2000/svg" viewBox="0 0 47.45 50.9"><defs><style>.cls-1{fill:none;stroke:#05e5ce;stroke-miterlimit:10;}.cls-2{fill:#e5e5e5;}</style></defs><title>ai</title><g id="INFORMACIÓN"><polygon class="cls-1" points="5.59 9.55 5.88 23.02 3.78 24.72 4.16 39.08 22.91 48.58 41.75 38.83 41.76 25.31 43.48 24.22 43.67 9 24.67 3.14 5.59 9.55"/><path class="cls-2" d="M27.39,33.07c-1,0-2,0-3,0-.11,0-.26-.19-.31-.33-.42-1.1-.84-2.21-1.24-3.32a.46.46,0,0,0-.51-.37c-1.64,0-3.28,0-4.93,0a.43.43,0,0,0-.47.34c-.39,1.1-.82,2.19-1.2,3.29-.11.3-.23.42-.56.41-.92,0-1.83,0-2.81,0,.07-.2.12-.36.18-.52Q15.41,25,18.29,17.43a.67.67,0,0,1,.78-.53c.62,0,1.23,0,1.85,0a.43.43,0,0,1,.49.32Q24.35,25,27.32,32.8A2,2,0,0,1,27.39,33.07ZM20,20.64l-.11,0-2.25,6.17h4.52Z"/><path class="cls-2" d="M31.92,33.05h-3V21.17h3Z"/><path class="cls-2" d="M28.94,16.48h3v3h-3Z"/></g></svg>