<svg xmlns="http://www.w3.org/2000/svg" viewBox="0 0 47.45 50.9"><defs><style>.cls-1{fill:none;stroke:#05e5ce;stroke-miterlimit:10;}.cls-2{fill:#e5e5e5;}</style></defs><title>creativida</title><g id="INFORMACIÓN"><polygon class="cls-1" points="6.24 9.55 6.53 23.02 4.43 24.72 4.81 39.08 23.56 48.58 42.4 38.83 42.41 25.31 44.13 24.22 44.32 9 25.32 3.14 6.24 9.55"/><path class="cls-2" d="M24.7,11.57c-4.35,0-7.39,2.94-7.39,7.15,0,2.64,1.2,4.13,2.48,5.71s2.41,3,2.41,5.41a14.88,14.88,0,0,0,.39,4.69h1.79l.05-3a.29.29,0,0,1,.11-.21l.76-.55-1.82-1.31a.28.28,0,0,1-.1-.21.29.29,0,0,1,.1-.22l1.82-1.31-1.82-1.3a.29.29,0,0,1-.1-.22.28.28,0,0,1,.1-.21l2.12-1.53a.28.28,0,0,1,.37.06.26.26,0,0,1-.06.37l-1.82,1.31,1.82,1.31a.26.26,0,0,1,.11.21.27.27,0,0,1-.11.22l-1.82,1.31,1.82,1.31a.26.26,0,0,1,.11.21.27.27,0,0,1-.11.22l-.95.68-.05,2.85H26.8a14.88,14.88,0,0,0,.39-4.69c0-2.41,1.23-3.94,2.42-5.41s2.47-3.07,2.47-5.71C32.08,14.51,29,11.57,24.7,11.57Z"/><polygon class="cls-2" points="22.71 36.4 22.71 36.97 24.78 36.15 23.34 36.15 22.71 36.4"/><polygon class="cls-2" points="22.71 37.55 22.71 38.11 26.69 36.53 26.69 36.15 26.23 36.15 22.71 37.55"/><polygon class="cls-2" points="22.71 39.26 26.69 37.68 26.69 37.11 22.71 38.69 22.71 39.26"/><polygon class="cls-2" points="22.71 40.4 26.69 38.82 26.69 38.25 22.71 39.83 22.71 40.4"/><polygon class="cls-2" points="25.32 40.51 26.69 39.97 26.69 39.4 23.89 40.51 25.32 40.51"/></g></svg>