<svg xmlns="http://www.w3.org/2000/svg" viewBox="0 0 47.45 50.9"><defs><style>.cls-1{fill:none;stroke:#05e5ce;stroke-miterlimit:10;}.cls-2{fill:#e5e5e5;}</style></defs><title>pr</title><g id="INFORMACIÓN"><polygon class="cls-1" points="5.59 9.55 5.88 23.02 3.78 24.72 4.16 39.08 22.91 48.58 41.75 38.83 41.76 25.31 43.48 24.22 43.67 9 24.67 3.14 5.59 9.55"/><path class="cls-2" d="M14.57,17.69c2.51,0,5-.08,7.44,0a4.71,4.71,0,0,1,3.76,2.47,5.52,5.52,0,0,1-1.65,7.53,4.85,4.85,0,0,1-2.67.76H18.11l-.4,0v5.4H14.57Zm3.15,8h3.4a2,2,0,0,0,2.07-1.44,3.28,3.28,0,0,0,0-2.29,1.94,1.94,0,0,0-1.59-1.48c-1.29-.1-2.59,0-3.91,0Z"/><path class="cls-2" d="M35.65,21.79v2.69c-.71.16-1.42.27-2.09.49a4.07,4.07,0,0,0-1.21.73,1.9,1.9,0,0,0-.77,1.65c0,2,0,4,0,6v.55H28.54v-12h2.79v2.34C32.39,22.76,33.62,21.65,35.65,21.79Z"/></g></svg>