<svg xmlns="http://www.w3.org/2000/svg" viewBox="0 0 47.45 50.9"><defs><style>.cls-1{fill:none;stroke:#05e5ce;stroke-miterlimit:10;}.cls-2{fill:#e5e5e5;}</style></defs><title>ps</title><g id="INFORMACIÓN"><polygon class="cls-1" points="5.59 9.55 5.88 23.02 3.78 24.72 4.16 39.08 22.91 48.58 41.75 38.83 41.76 25.31 43.48 24.22 43.67 9 24.67 3.14 5.59 9.55"/><path class="cls-2" d="M15.09,28.46v5.48H11.91V17.55a1.85,1.85,0,0,1,.23,0c2.25,0,4.51,0,6.76,0a5.11,5.11,0,0,1,4.77,3.41,5.48,5.48,0,0,1-3,7.2,6.35,6.35,0,0,1-1.84.32C17.61,28.49,16.38,28.46,15.09,28.46Zm0-8.13v5.3c1.3,0,2.58,0,3.86,0a1.66,1.66,0,0,0,1.37-.87,3.19,3.19,0,0,0,.06-3.39,1.91,1.91,0,0,0-1.69-1Z"/><path class="cls-2" d="M35,23.31l-1.2,1.8-1.26-.72a4.68,4.68,0,0,0-2.74-.56c-.84.09-1.41.62-1.39,1.28a1.29,1.29,0,0,0,1,1.17c.64.22,1.31.34,1.94.55a20,20,0,0,1,2.51,1,2.75,2.75,0,0,1,1.63,2.73,3.18,3.18,0,0,1-2,3.07c-3,1.22-5.75.55-8.38-1.24l1.12-1.88c.92.42,1.78.9,2.69,1.21a7.71,7.71,0,0,0,2,.25,2.1,2.1,0,0,0,1-.29A1,1,0,0,0,32,29.78a7.28,7.28,0,0,0-1.56-.63c-.94-.31-1.93-.51-2.85-.88a2.86,2.86,0,0,1-2-3.52,3.69,3.69,0,0,1,2.13-2.59,7.05,7.05,0,0,1,7.22,1A.54.54,0,0,1,35,23.31Z"/></g></svg>