<svg xmlns="http://www.w3.org/2000/svg" viewBox="0 0 47.45 50.9"><defs><style>.cls-1{fill:none;stroke:#05e5ce;stroke-miterlimit:10;}.cls-2{fill:#e5e5e5;}</style></defs><title>servicio</title><g id="INFORMACIÓN"><polygon class="cls-1" points="5.59 9.55 5.88 23.02 3.78 24.72 4.16 39.08 22.91 48.58 41.75 38.83 41.76 25.31 43.48 24.22 43.67 9 24.67 3.14 5.59 9.55"/><path class="cls-2" d="M17.9,21.4C19.14,24.34,21.5,26,23.07,26s3.71-1.55,5-4.46A13.4,13.4,0,0,0,28.79,19a10.18,10.18,0,0,0,.31-2.74,5.84,5.84,0,0,0-6-5.56,5.84,5.84,0,0,0-6,5.56,13.14,13.14,0,0,0,.14,2A12.16,12.16,0,0,0,17.9,21.4Z"/><path class="cls-2" d="M33.74,30c-1.21-1.29-4.6-1-6.27-1.85-.75,1.39-.76,3.68-2,3.68h-.16c-1.87-.28-.93-5-2.24-5s-.37,4.76-2.24,5h-.16c-1.24,0-1.25-2.29-2-3.68C17,29,13.61,28.71,12.41,30c-.66.7-1,5-1,6.94H34.73C34.73,35,34.39,30.7,33.74,30Z"/></g></svg>