<svg xmlns="http://www.w3.org/2000/svg" viewBox="0 0 47.45 50.9"><defs><style>.cls-1{fill:none;stroke:#05e5ce;stroke-miterlimit:10;}.cls-2{fill:#e5e5e5;}</style></defs><title>trabajo</title><g id="INFORMACIÓN"><polygon class="cls-1" points="5.59 10.55 5.88 24.02 3.78 25.72 4.16 40.08 22.91 49.58 41.75 39.83 41.76 26.31 43.48 25.22 43.67 10 24.67 4.14 5.59 10.55"/><path class="cls-2" d="M32.08,16.26a1.27,1.27,0,0,0-.55.15l-9.19,5.2a1.83,1.83,0,0,0-1,1.33v7.78a1.83,1.83,0,0,0,1,1.33l9.19,5.2a1.27,1.27,0,0,0,.55.15.41.41,0,0,0,.46-.43V16.69A.41.41,0,0,0,32.08,16.26Z"/><path class="cls-2" d="M20.55,31.47V22.19h-5a3.44,3.44,0,0,0-3.44,3.44V28A3.46,3.46,0,0,0,13,30.29h0L18,35.34h3.74l-3.87-3.87Z"/></g></svg>